<?xml version="1.0" standalone="no"?>
<!DOCTYPE svg PUBLIC "-//W3C//DTD SVG 20010904//EN"
 "http://www.w3.org/TR/2001/REC-SVG-20010904/DTD/svg10.dtd">
<svg version="1.0" xmlns="http://www.w3.org/2000/svg"
  viewBox="0 0 500.000000 500.000000"
 preserveAspectRatio="xMidYMid meet">

<g transform="translate(0.000000,500.000000) scale(0.100000,-0.100000)"
fill="#2055c0" stroke="none">
<path d="M181 4974 l-21 -27 0 -2447 0 -2447 21 -27 20 -26 1372 0 1371 0 523
523 523 523 0 766 c0 759 0 766 -21 792 -27 35 -86 36 -117 3 l-22 -23 0 -707
0 -707 -482 0 c-364 -1 -487 -4 -499 -13 -38 -29 -39 -44 -39 -521 l0 -466
-1245 0 -1245 0 0 2330 0 2330 1756 0 c1741 0 1756 0 1781 -20 14 -11 41 -20
59 -20 28 0 38 6 54 33 27 44 27 116 -1 151 l-20 26 -1874 0 -1874 0 -20 -26z
m3433 -4056 c-49 -51 -209 -213 -356 -360 l-268 -268 0 360 0 360 357 0 357 0
-90 -92z"/>
<path d="M4052 4680 c-74 -16 -149 -68 -281 -194 -69 -67 -716 -712 -1437
-1434 l-1311 -1311 -56 -133 c-169 -404 -229 -546 -242 -573 -29 -58 -105
-248 -105 -262 0 -8 -31 -87 -70 -177 -75 -175 -85 -221 -50 -256 39 -39 56
-36 306 69 321 134 520 215 574 233 25 9 146 58 269 110 l225 93 1455 1455
c1204 1203 1458 1462 1469 1495 52 156 54 214 13 332 -15 45 -42 99 -59 120
-18 21 -116 118 -219 216 -155 147 -196 180 -241 197 -62 24 -178 33 -240 20z
m194 -195 c36 -18 102 -78 227 -203 163 -166 177 -183 192 -236 18 -62 14
-111 -13 -163 -19 -36 -348 -373 -364 -373 -6 0 -150 140 -321 311 l-311 311
173 170 c107 105 189 177 215 189 60 27 140 25 202 -6z m-385 -792 l309 -308
-81 -81 -81 -81 -315 316 -316 316 78 72 c43 40 83 73 88 73 5 0 148 -138 318
-307z m-366 -195 c19 -17 16 -21 -153 -192 -180 -181 -186 -190 -157 -245 16
-32 33 -41 76 -41 35 0 108 63 266 228 l102 107 123 -121 c68 -66 124 -125
126 -130 1 -5 -451 -463 -1005 -1017 l-1008 -1008 -19 28 c-40 57 -121 124
-192 159 l-73 37 730 730 c681 680 731 733 731 765 0 68 -82 108 -137 67 -11
-9 -337 -332 -726 -720 -388 -388 -709 -705 -715 -705 -5 0 -24 29 -43 65 -33
65 -100 143 -156 183 l-30 21 1010 1010 1010 1010 110 -106 c60 -59 119 -115
130 -125z m-2271 -2011 c58 -61 78 -115 81 -215 2 -79 4 -87 29 -109 22 -19
39 -23 92 -23 108 0 225 -56 282 -134 l21 -29 -152 -64 c-328 -138 -460 -193
-466 -193 -3 0 -57 54 -119 120 l-113 119 34 73 c37 81 118 282 137 341 6 21
27 72 46 114 l34 75 28 -17 c15 -9 45 -36 66 -58z m-345 -781 l64 -65 -29 -6
c-16 -4 -66 -21 -111 -40 -46 -18 -83 -30 -83 -27 0 12 85 202 90 202 3 0 34
-29 69 -64z"/>
</g>
</svg>
