<?xml version="1.0" standalone="no"?>
<!DOCTYPE svg PUBLIC "-//W3C//DTD SVG 20010904//EN"
 "http://www.w3.org/TR/2001/REC-SVG-20010904/DTD/svg10.dtd">
<svg version="1.0" xmlns="http://www.w3.org/2000/svg"
 viewBox="-50 -50 200.000000 200.000000"
 preserveAspectRatio="xMidYMid meet">

<g transform="translate(0.000000,136.000000) scale(0.100000,-0.100000)"
fill="#2055c0" stroke="none">
<path d="M1132 1297 c-23 -23 -42 -49 -42 -58 0 -19 121 -139 141 -139 16 0
99 80 99 96 0 13 -133 144 -146 144 -5 0 -29 -19 -52 -43z"/>
<path d="M598 763 c-282 -282 -442 -450 -452 -473 -8 -19 -30 -72 -50 -117
-47 -111 -41 -115 104 -52 l115 49 438 438 c240 240 437 444 437 452 0 20
-121 140 -140 140 -8 0 -212 -197 -452 -437z"/>
</g>
</svg>
