<?xml version="1.0" standalone="no"?>
<!DOCTYPE svg PUBLIC "-//W3C//DTD SVG 20010904//EN"
 "http://www.w3.org/TR/2001/REC-SVG-20010904/DTD/svg10.dtd">
<svg version="1.0" xmlns="http://www.w3.org/2000/svg"
 width="500.000000pt" height="500.000000pt" viewBox="0 0 500.000000 500.000000"
 preserveAspectRatio="xMidYMid meet">

<g transform="translate(0.000000,500.000000) scale(0.100000,-0.100000)"
fill="#2055c0" stroke="none">
<path d="M1724 3848 c8 -13 186 -319 395 -681 366 -635 380 -658 394 -635 9
13 133 228 278 478 144 250 311 540 371 644 60 104 112 195 115 202 4 12 -121
14 -781 14 l-786 0 14 -22z"/>
<path d="M2106 1811 c-212 -367 -386 -671 -386 -675 0 -3 351 -6 780 -6 429 0
780 3 780 6 0 13 -773 1344 -780 1344 -4 0 -181 -301 -394 -669z"/>
</g>
</svg>
