<?xml version="1.0" standalone="no"?>
<!DOCTYPE svg PUBLIC "-//W3C//DTD SVG 20010904//EN"
 "http://www.w3.org/TR/2001/REC-SVG-20010904/DTD/svg10.dtd">
<svg version="1.0" xmlns="http://www.w3.org/2000/svg"
 viewBox="0 0 400 400"
 preserveAspectRatio="xMidYMid meet">

<g transform="translate(0.000000,500.000000) scale(0.100000,-0.100000)"
fill="#2055c0" stroke="none">
<path d="M1814 3734 c-269 -195 -274 -200 -274 -234 0 -34 5 -39 273 -234 147
-107 237 -166 253 -166 13 0 33 9 44 20 18 18 20 33 20 136 l0 117 153 -6
c575 -21 933 -331 1023 -886 8 -48 17 -149 20 -226 l7 -140 39 -39 c35 -36 41
-38 83 -34 107 13 130 59 121 248 -21 465 -173 813 -452 1039 -233 188 -532
290 -861 294 l-133 2 0 118 c0 104 -2 119 -20 137 -11 11 -31 20 -44 20 -15 0
-109 -62 -252 -166z"/>
<path d="M2240 2655 c-138 -44 -207 -200 -146 -330 41 -90 119 -137 221 -137
161 -1 271 154 224 313 -36 118 -180 192 -299 154z"/>
<path d="M1350 2413 c1 -338 166 -644 449 -830 99 -66 181 -102 301 -135 70
-18 111 -22 230 -23 157 0 251 16 368 62 l62 25 0 54 c0 30 -2 54 -5 54 -3 0
-23 -9 -45 -20 -21 -11 -78 -32 -127 -47 -79 -24 -104 -26 -238 -26 -174 0
-255 17 -389 82 -312 151 -506 462 -506 812 l0 99 -50 0 -50 0 0 -107z"/>
</g>
</svg>
