<?xml version="1.0" standalone="no"?>
<!DOCTYPE svg PUBLIC "-//W3C//DTD SVG 20010904//EN"
 "http://www.w3.org/TR/2001/REC-SVG-20010904/DTD/svg10.dtd">
<svg version="1.0" xmlns="http://www.w3.org/2000/svg"
 viewBox="0 0 136.000000 136.000000"
 preserveAspectRatio="xMidYMid meet">

<g transform="translate(0.000000,136.000000) scale(0.100000,-0.100000)"
fill="#2055c0" stroke="none">
<path d="M552 873 c-273 -103 -491 -191 -489 -196 2 -6 111 -38 243 -71 l239
-61 62 -243 c33 -134 64 -246 66 -249 3 -3 10 -2 15 1 8 5 365 946 374 985 2
7 -1 15 -7 16 -5 2 -232 -80 -503 -182z m222 -84 l-220 -220 -205 51 c-112 28
-211 53 -219 56 -11 4 832 331 860 334 3 0 -94 -99 -216 -221z m76 -238 c-87
-232 -160 -424 -162 -426 -2 -2 -28 93 -57 212 l-54 215 214 214 c117 117 214
212 216 211 1 -2 -69 -193 -157 -426z"/>
</g>
</svg>
