<?xml version="1.0" standalone="no"?>
<!DOCTYPE svg PUBLIC "-//W3C//DTD SVG 20010904//EN"
 "http://www.w3.org/TR/2001/REC-SVG-20010904/DTD/svg10.dtd">
<svg version="1.0" xmlns="http://www.w3.org/2000/svg"
viewBox="0 0 512.000000 512.000000"
 preserveAspectRatio="xMidYMid meet">

<g transform="translate(0.000000,512.000000) scale(0.100000,-0.100000)"
fill="#2055c0" stroke="none">
<path d="M2614 4420 c-1466 -440 -2341 -708 -2373 -726 -67 -36 -161 -137
-194 -206 -110 -235 -14 -511 217 -622 48 -23 390 -126 1042 -311 l972 -277
277 -972 c183 -643 288 -995 310 -1041 112 -231 389 -328 623 -218 73 34 172
129 209 200 34 64 1423 4679 1423 4727 0 74 -77 147 -152 145 -18 -1 -1078
-315 -2354 -699z m780 -811 l-1040 -1040 -970 277 c-533 152 -981 283 -996
290 -44 23 -81 79 -85 132 -5 54 25 124 67 154 20 15 4016 1224 4055 1227 5 1
-458 -467 -1031 -1040z m651 -1199 c-332 -1108 -613 -2026 -623 -2040 -24 -34
-98 -70 -142 -70 -42 0 -105 34 -133 71 -11 16 -133 426 -299 1005 l-279 978
1037 1037 c571 571 1039 1037 1041 1036 1 -2 -270 -909 -602 -2017z"/>
</g>
</svg>
